<svg width="224" height="56" viewBox="0 0 224 56" fill="none" xmlns="http://www.w3.org/2000/svg">
<path fill-rule="evenodd" clip-rule="evenodd" d="M51.4596 28.8477V31.6358C50.1788 33.3897 48.1545 34.2666 46.2376 35.2511C41.2305 37.733 35.8846 39.8674 30.5882 42.0928C30.6377 45.6006 30.6901 49.1056 30.7452 52.6077C30.7636 53.4944 31.081 54.3486 31.6459 55.0318H21.1936C21.6965 54.7086 22.1248 54.2817 22.4497 53.7795C22.7746 53.2773 22.9886 52.7114 23.0775 52.1197C23.0114 47.7929 23.0775 43.4661 23.0775 39.1394C25.5562 37.8818 28.0351 36.6574 30.5138 35.3834C30.5138 36.2107 30.5138 37.1042 30.5138 37.9564C31.7201 37.4351 49.3608 30.5768 47.8652 29.0132C45.6261 28.186 41.1478 28.4755 38.7765 28.3762C36.5505 28.113 34.343 27.7124 32.1663 27.1766C30.6295 26.7795 30.2494 25.1167 30.8278 23.6854C31.654 21.642 35.8763 19.8467 37.9088 17.704C37.9088 17.4476 30.7617 18.5313 29.5884 14.2707C29.4066 12.7899 30.6047 11.6565 31.5715 10.8871C32.3563 10.2335 37.628 6.75059 36.7191 5.78265C31.6293 3.84677 25.9777 8.26455 22.053 11.0939C21.8959 11.1518 21.805 11.0939 21.7142 11.2263C21.6232 11.3587 21.7142 11.4 21.8133 11.4745C23.7054 11.8219 25.5976 12.4756 26.7708 14.097C26.9516 14.3439 27.0682 14.632 27.11 14.9353C27.1519 15.2387 27.1177 15.5476 27.0105 15.8343C24.1764 19.3256 18.2025 20.2687 15.1866 23.28C17.6159 23.8094 19.9212 21.8488 22.5652 23.1477C24.7878 24.2314 26.0107 25.3731 22.8048 26.5147C20.3839 27.3421 3.43725 36.8642 5.62684 38.9243C6.90755 38.8001 20.6565 36.128 20.7887 36.2768C20.7887 36.7733 19.3345 37.8156 18.9957 38.2707C18.9305 38.3143 18.8695 38.3642 18.814 38.4196C13.5754 40.2728 7.68423 44.5747 1.82603 41.6213C1.48034 41.4262 1.19459 41.1401 0.999776 40.794V36.2356C3.82559 31.6358 10.3778 30.9325 13.9721 27.2428C12.2122 27.069 9.32848 28.1942 7.97342 26.4155C7.56289 25.7466 7.41504 24.9488 7.55855 24.1769C7.70205 23.4049 8.12667 22.7139 8.7501 22.2377C12.6996 19.6564 17.1696 17.8529 20.9457 15.0318C20.9457 14.9243 20.8548 14.8995 20.764 14.8581C19.1775 14.6099 13.6251 14.4279 15.6164 11.0526C16.5252 9.52204 17.4672 9.21594 21.0697 7.61098C24.6722 6.00602 33.1908 1.92743 39.4953 4.96362C40.199 5.48378 40.7058 6.22745 40.933 7.07324C39.5283 9.8695 34.5625 11.4993 34.3229 14.461C37.0413 14.8084 41.2552 14.461 42.8581 17.2491C44.5933 18.9036 33.9346 23.8674 35.8597 24.8188C41.0073 25.6958 47.4274 24.5458 51.4843 28.4175L51.4596 28.8477ZM0.974988 1.54688H52.4345V55.9998H0V1.55515L0.974988 1.54688Z" fill="#275E35"/>
<path d="M196.997 42.1346C197.007 42.4172 196.951 42.698 196.833 42.9552C196.716 43.2121 196.54 43.4382 196.321 43.6155C195.874 43.9622 195.324 44.1461 194.759 44.1366C194.161 44.173 193.572 43.9842 193.105 43.6072C192.696 43.2236 192.454 42.6951 192.429 42.1346H193.585C193.656 42.3685 193.808 42.5691 194.015 42.6999C194.221 42.8305 194.468 42.8824 194.709 42.8461C194.991 42.8602 195.274 42.8122 195.535 42.7055C195.638 42.6439 195.724 42.5611 195.791 42.4625C195.859 42.364 195.903 42.2521 195.924 42.1346H196.997ZM198.725 52.0622H196.146V48.5958L193.469 52.12H190.867V45.0054H193.445V48.5296L196.155 45.0054H198.716L198.725 52.0622ZM186.76 47.9256C186.751 47.5123 186.599 47.1148 186.331 46.8005C186.196 46.6768 186.036 46.5826 185.862 46.5239C185.688 46.4652 185.504 46.4433 185.321 46.4596C185.139 46.476 184.961 46.5301 184.802 46.6188C184.641 46.7074 184.5 46.8284 184.389 46.9742C184.197 47.2556 184.088 47.5852 184.075 47.9256H186.76ZM189.529 49.2246H184.066C184.083 49.5785 184.208 49.919 184.422 50.2007C184.548 50.3501 184.707 50.4686 184.886 50.5474C185.065 50.6263 185.259 50.6633 185.454 50.6557C185.721 50.6555 185.983 50.5872 186.215 50.4572C186.401 50.3393 186.563 50.1878 186.695 50.0104L189.379 50.2586C189.038 50.8991 188.522 51.4298 187.893 51.7891C187.113 52.1339 186.265 52.2925 185.414 52.2525C184.652 52.2864 183.893 52.1508 183.191 51.8554C182.635 51.5711 182.171 51.1352 181.852 50.5978C181.485 49.9834 181.3 49.2781 181.315 48.5627C181.296 48.0661 181.381 47.5709 181.563 47.1091C181.747 46.6474 182.026 46.2294 182.381 45.8822C183.193 45.162 184.256 44.7906 185.339 44.8481C186.166 44.8106 186.989 44.9693 187.743 45.3114C188.321 45.603 188.792 46.0689 189.091 46.6434C189.429 47.352 189.588 48.1336 189.553 48.9184L189.529 49.2246ZM175.234 48.571C175.198 49.0168 175.323 49.4606 175.59 49.8201C175.697 49.9514 175.834 50.0559 175.989 50.1263C176.144 50.1965 176.312 50.2305 176.482 50.2255C176.64 50.2304 176.797 50.1978 176.941 50.1302C177.085 50.0626 177.21 49.9621 177.307 49.8367C177.558 49.4433 177.671 48.9778 177.63 48.513C177.664 48.0649 177.545 47.6184 177.292 47.2473C177.195 47.1194 177.07 47.016 176.926 46.9456C176.783 46.8751 176.624 46.8396 176.465 46.8419C176.299 46.8408 176.135 46.8765 175.985 46.9466C175.836 47.0167 175.703 47.1195 175.597 47.2473C175.332 47.6288 175.203 48.09 175.234 48.5544V48.571ZM172.499 54.7923V44.9971H175.052V46.0394C175.306 45.6842 175.626 45.3809 175.994 45.146C176.403 44.9344 176.856 44.8265 177.316 44.8315C177.746 44.8128 178.173 44.903 178.559 45.0939C178.945 45.2847 179.276 45.5702 179.522 45.9236C180.061 46.7137 180.334 47.656 180.299 48.6124C180.37 49.5832 180.076 50.5456 179.473 51.3094C179.202 51.6108 178.868 51.8496 178.496 52.0096C178.123 52.1696 177.721 52.2468 177.316 52.2359C176.923 52.243 176.532 52.1698 176.168 52.0208C175.82 51.877 175.504 51.663 175.243 51.392V54.7758L172.499 54.7923ZM168.458 47.9256C168.451 47.5133 168.302 47.1159 168.037 46.8005C167.901 46.6766 167.741 46.5822 167.566 46.5234C167.392 46.4648 167.208 46.4428 167.024 46.4592C166.84 46.4755 166.663 46.5296 166.502 46.6183C166.34 46.707 166.199 46.8282 166.087 46.9742C165.896 47.2556 165.786 47.5852 165.773 47.9256H168.458ZM171.235 49.2246H165.765C165.781 49.5785 165.905 49.919 166.121 50.2007C166.247 50.3496 166.406 50.4678 166.585 50.5465C166.764 50.6253 166.958 50.6627 167.153 50.6557C167.42 50.6555 167.68 50.5872 167.913 50.4572C168.099 50.3393 168.262 50.1878 168.392 50.0104L171.078 50.2586C170.736 50.8991 170.221 51.4298 169.59 51.7891C168.811 52.1354 167.963 52.294 167.112 52.2525C166.351 52.2872 165.591 52.1515 164.889 51.8554C164.33 51.5724 163.863 51.1362 163.542 50.5978C163.178 49.9827 162.996 49.2773 163.014 48.5627C162.993 48.0661 163.079 47.5709 163.262 47.1091C163.446 46.6474 163.724 46.2294 164.079 45.8822C164.479 45.524 164.945 45.2481 165.451 45.0706C165.958 44.8932 166.493 44.8175 167.029 44.8481C167.858 44.8108 168.685 44.9694 169.442 45.3114C170.018 45.6052 170.488 46.0706 170.788 46.6434C171.123 47.3533 171.283 48.1338 171.251 48.9184L171.235 49.2246ZM157.626 50.4241H158.518C158.712 50.4326 158.902 50.3806 159.064 50.2752C159.132 50.2231 159.187 50.1552 159.222 50.0774C159.258 49.9994 159.274 49.9141 159.271 49.8284C159.271 49.3983 159.022 49.1832 158.518 49.1832H157.626V50.4241ZM157.626 47.7105H158.312C158.767 47.7105 158.998 47.5038 158.998 47.0901C158.998 46.6765 158.758 46.5937 158.271 46.5937H157.626V47.7105ZM160.262 48.3227C160.74 48.3527 161.194 48.542 161.551 48.8605C161.713 49.0157 161.839 49.2038 161.922 49.4122C162.005 49.6206 162.041 49.8444 162.03 50.0684C162.05 50.3574 162 50.647 161.883 50.9122C161.766 51.1774 161.587 51.4102 161.361 51.5906C160.627 51.9938 159.79 52.1693 158.956 52.0953H154.9V45.0054H159.288C159.924 44.9647 160.559 45.1205 161.105 45.452C161.306 45.5949 161.468 45.7852 161.578 46.006C161.687 46.2269 161.741 46.4713 161.733 46.7179C161.735 46.9039 161.698 47.0883 161.627 47.2603C161.557 47.4322 161.452 47.5882 161.319 47.7188C161.032 48.0089 160.663 48.205 160.262 48.2813V48.3227ZM150.421 50.1097V46.9825H149.116V47.0653C149.103 48.1073 148.884 49.1364 148.471 50.0932L150.421 50.1097ZM153.908 54.1139H152.032V52.12H146.992V54.1387H145.1V50.0932H145.794C146.335 49.0115 146.59 47.8101 146.538 46.602V45.0054H153.148V50.0932H153.899L153.908 54.1139ZM136.936 48.7281C136.555 48.8702 136.167 48.989 135.771 49.0838C135.393 49.156 135.032 49.3053 134.715 49.5224C134.645 49.5852 134.589 49.6617 134.55 49.7472C134.513 49.8325 134.492 49.9251 134.491 50.0187C134.487 50.1167 134.505 50.2143 134.544 50.3045C134.582 50.3946 134.64 50.4751 134.715 50.54C134.9 50.6912 135.136 50.7652 135.374 50.7468C135.665 50.7462 135.95 50.6693 136.201 50.5234C136.436 50.4056 136.632 50.2215 136.763 49.994C136.878 49.7339 136.933 49.4508 136.921 49.1666L136.936 48.7281ZM134.573 47.3052L131.971 47.0322C132.041 46.65 132.185 46.2848 132.392 45.9567C132.615 45.6748 132.897 45.4459 133.218 45.2866C133.542 45.1219 133.892 45.0128 134.251 44.964C134.721 44.8853 135.197 44.8466 135.673 44.8481C136.331 44.8374 136.989 44.8845 137.639 44.9888C138.097 45.0622 138.525 45.2595 138.878 45.5596C139.128 45.7858 139.318 46.07 139.432 46.3868C139.559 46.7258 139.626 47.084 139.63 47.4459V50.5731C139.626 50.8338 139.647 51.0945 139.696 51.3506C139.761 51.6025 139.852 51.8466 139.969 52.0787H137.416C137.333 51.9453 137.264 51.804 137.209 51.6568C137.171 51.5095 137.141 51.3604 137.119 51.21C136.813 51.5208 136.452 51.7707 136.053 51.9463C135.524 52.1447 134.964 52.2429 134.401 52.2359C133.705 52.2846 133.018 52.0755 132.466 51.6485C132.08 51.3021 131.845 50.8179 131.811 50.2999C131.777 49.7819 131.948 49.2711 132.285 48.877C132.777 48.4469 133.388 48.1758 134.037 48.0993C135.062 47.9008 135.689 47.7519 136.028 47.6692C136.352 47.5778 136.672 47.4701 136.986 47.3465C137.012 47.0942 136.938 46.8415 136.779 46.6434C136.569 46.4928 136.311 46.4224 136.053 46.4448C135.703 46.4235 135.355 46.4978 135.045 46.6599C134.822 46.8106 134.656 47.0321 134.573 47.2887V47.3052ZM131.194 52.12H128.129L127.079 50.1677C126.979 49.9276 126.809 49.7231 126.592 49.5803C126.41 49.492 126.208 49.4496 126.005 49.4561V52.12H123.278V45.0054H126.005V47.5534C126.098 47.5525 126.189 47.533 126.274 47.4961C126.36 47.4591 126.436 47.4056 126.501 47.3382C126.684 47.0776 126.841 46.8006 126.972 46.511C127.114 46.1778 127.297 45.8637 127.517 45.5762C127.681 45.3808 127.891 45.23 128.129 45.1377C128.432 45.0304 128.749 44.9691 129.071 44.9557C129.442 44.9557 130.005 44.9143 130.723 44.9143V46.8419H130.607C130.332 46.8211 130.057 46.8211 129.782 46.8419C129.614 46.8622 129.454 46.9249 129.318 47.0239C129.148 47.1895 129.011 47.386 128.914 47.603C128.812 47.8165 128.685 48.0166 128.534 48.1987C128.415 48.3238 128.258 48.4054 128.087 48.4304C128.396 48.4464 128.698 48.5312 128.971 48.6785C129.352 49.0264 129.666 49.4414 129.897 49.9029L131.194 52.12ZM121.543 52.12H118.982V48.5958L116.28 52.12H113.694V45.0054H116.272V48.5296L118.982 45.0054H121.552L121.543 52.12ZM107.2 48.5958C107.165 49.0401 107.288 49.4824 107.547 49.845C107.657 49.9758 107.795 50.0802 107.951 50.1504C108.107 50.2205 108.276 50.2547 108.447 50.2504C108.606 50.256 108.764 50.2236 108.907 50.1559C109.051 50.0883 109.176 49.9874 109.273 49.8615C109.524 49.4682 109.637 49.0027 109.596 48.5379C109.632 48.0906 109.516 47.6443 109.265 47.2721C109.169 47.1442 109.044 47.0408 108.901 46.9705C108.757 46.9 108.599 46.8644 108.439 46.8667C108.273 46.8655 108.11 46.9013 107.959 46.9714C107.809 47.0416 107.677 47.1443 107.571 47.2721C107.304 47.644 107.173 48.0969 107.2 48.5544V48.5958ZM104.465 54.817V44.9971H107.01V46.0394C107.274 45.6813 107.605 45.3778 107.985 45.146C108.393 44.9344 108.847 44.8265 109.307 44.8315C109.742 44.807 110.176 44.8945 110.568 45.0857C110.96 45.2768 111.297 45.5654 111.546 45.9236C112.085 46.7137 112.357 47.656 112.322 48.6124C112.397 49.5836 112.102 50.5472 111.496 51.3094C111.227 51.6114 110.896 51.8509 110.525 52.0109C110.153 52.171 109.752 52.2478 109.348 52.2359C108.954 52.2437 108.563 52.1704 108.199 52.0208C107.85 51.879 107.535 51.6647 107.274 51.392V54.7758L104.465 54.817ZM99.0443 50.4241C99.2389 50.4342 99.433 50.3957 99.609 50.312C99.7849 50.2281 99.9374 50.1018 100.052 49.9443C100.311 49.5348 100.435 49.0546 100.408 48.571C100.437 48.0885 100.31 47.6096 100.044 47.2059C99.9309 47.0552 99.7834 46.9338 99.6138 46.8518C99.4442 46.7697 99.2575 46.7294 99.0691 46.7344C98.8678 46.7243 98.6674 46.7672 98.4876 46.8586C98.3079 46.95 98.1552 47.0868 98.0446 47.2556C97.7961 47.6568 97.6751 48.1242 97.6975 48.5958C97.6691 49.068 97.7906 49.5371 98.0446 49.936C98.1599 50.089 98.312 50.2103 98.487 50.2885C98.6618 50.3666 98.8535 50.399 99.0443 50.3828V50.4241ZM97.6811 45.2452C98.08 44.9839 98.5517 44.8565 99.0279 44.8812C99.5818 44.8416 100.138 44.9143 100.663 45.0947C101.189 45.2753 101.672 45.56 102.085 45.9319C102.427 46.2753 102.696 46.685 102.875 47.1359C103.054 47.5868 103.139 48.0694 103.126 48.5544C103.136 49.0414 103.048 49.5254 102.87 49.9784C102.691 50.4314 102.424 50.8444 102.085 51.1935C101.679 51.5782 101.198 51.8739 100.671 52.0618C100.145 52.2499 99.5852 52.326 99.0279 52.2856C98.4735 52.3266 97.9167 52.2498 97.3941 52.0602C96.8715 51.8706 96.3948 51.5723 95.9955 51.1852C95.3097 50.4572 94.9709 49.2659 94.9709 47.6113C94.9001 46.2987 95.2039 44.9932 95.8467 43.8471C96.1066 43.4014 96.4779 43.0312 96.9242 42.773C97.3704 42.5148 97.8762 42.3774 98.3916 42.3745H99.2179C99.9532 42.3745 100.358 42.2504 100.432 42.085H102.597C102.597 43.3838 101.87 44.054 100.408 44.1118C99.7268 44.0927 99.0477 44.1907 98.3998 44.4014C98.2294 44.4753 98.0768 44.5854 97.9528 44.7239C97.8287 44.8624 97.736 45.0262 97.6811 45.2039V45.2452ZM90.9966 48.753C90.6157 48.895 90.2267 49.0137 89.8316 49.1087C89.4527 49.1809 89.0927 49.3301 88.7739 49.5472C88.7045 49.61 88.6489 49.6866 88.6104 49.7719C88.5721 49.8574 88.5517 49.9499 88.5509 50.0435C88.5471 50.1415 88.5653 50.2392 88.6038 50.3292C88.6424 50.4194 88.7005 50.4998 88.7739 50.5648C88.9597 50.716 89.1962 50.79 89.4349 50.7715C89.7252 50.771 90.0102 50.694 90.2612 50.5482C90.496 50.4304 90.6913 50.2463 90.823 50.0187C90.9384 49.7588 90.9921 49.4756 90.9801 49.1915L90.9966 48.753ZM88.6334 47.33L86.0308 47.057C86.1011 46.6748 86.2442 46.3097 86.4521 45.9815C86.6745 45.6996 86.9567 45.4708 87.2783 45.3114C87.6022 45.1467 87.9513 45.0376 88.3112 44.9888C88.7808 44.9102 89.2562 44.8714 89.7324 44.8729C90.3907 44.8622 91.0487 44.9092 91.6989 45.0136C92.1563 45.0869 92.5849 45.2844 92.9382 45.5845C93.1875 45.8107 93.3777 46.0948 93.4919 46.4117C93.6185 46.7506 93.6856 47.1089 93.6902 47.4707V50.5978C93.6852 50.8587 93.7074 51.1193 93.7563 51.3755C93.8206 51.6273 93.912 51.8714 94.0289 52.1036H91.4758C91.393 51.9702 91.3239 51.8288 91.2692 51.6816C91.2313 51.5343 91.201 51.3852 91.1784 51.2349C90.8728 51.5457 90.5111 51.7956 90.1124 51.9711C89.5843 52.1696 89.024 52.2677 88.4599 52.2607C87.7653 52.3094 87.077 52.1003 86.5265 51.6734C86.1403 51.3269 85.905 50.8427 85.871 50.3247C85.8371 49.8067 86.0071 49.2959 86.3447 48.9019C86.8369 48.4717 87.4476 48.2006 88.0964 48.1242C89.121 47.9256 89.7489 47.7767 90.0877 47.6941C90.4124 47.6027 90.7322 47.4949 91.0462 47.3713C91.072 47.119 90.9978 46.8664 90.8396 46.6682C90.6285 46.5176 90.3706 46.4472 90.1124 46.4696C89.7632 46.4482 89.4146 46.5226 89.1044 46.6847C88.8857 46.8291 88.7202 47.0412 88.6334 47.2887V47.33ZM75.8181 50.2338C75.9745 50.2305 76.1286 50.1951 76.2708 50.1296C76.4129 50.0641 76.5401 49.9701 76.6445 49.8532C76.9219 49.4648 77.0483 48.9882 76.9997 48.513C77.0164 48.0923 76.904 47.6766 76.6774 47.3217C76.5747 47.1682 76.4338 47.044 76.2688 46.9613C76.1036 46.8787 75.9199 46.8403 75.7356 46.8502C75.5717 46.8457 75.4095 46.8838 75.2648 46.9606C75.12 47.0374 74.9976 47.1504 74.9093 47.2887C74.7013 47.65 74.601 48.0633 74.6201 48.4799C74.6613 49.6381 75.0497 50.2338 75.8181 50.2338ZM80.974 50.2338C81.1389 50.239 81.3022 50.2006 81.4473 50.122C81.5924 50.0435 81.7143 49.928 81.8002 49.7871C82.005 49.4247 82.1024 49.0115 82.0812 48.5958C82.0812 47.4293 81.7011 46.8502 80.9327 46.8502C80.7763 46.8535 80.6222 46.8889 80.4801 46.9544C80.3379 47.0199 80.2107 47.114 80.1065 47.2307C79.8261 47.6179 79.6995 48.0956 79.7511 48.571C79.737 48.9915 79.8494 49.4065 80.0734 49.7623C80.1714 49.9108 80.3054 50.0321 80.4629 50.1145C80.6205 50.197 80.7962 50.2381 80.974 50.2338ZM79.7428 45.7168C80.0041 45.4329 80.3227 45.2079 80.6774 45.0567C81.0321 44.9055 81.4148 44.8316 81.8002 44.8398C82.2224 44.8259 82.6416 44.915 83.0216 45.0995C83.4016 45.284 83.7311 45.5583 83.9817 45.8988C84.5557 46.6963 84.8465 47.6632 84.8079 48.6455C84.8517 49.59 84.5589 50.5195 83.9817 51.268C83.7175 51.5878 83.3833 51.8422 83.0049 52.0114C82.6266 52.1808 82.2144 52.2604 81.8002 52.2442C81.4165 52.266 81.0327 52.2032 80.6757 52.0602C80.3188 51.9173 79.9975 51.6977 79.7347 51.4169V54.8005H77.008V51.4086C76.732 51.6788 76.405 51.8913 76.046 52.0332C75.6871 52.1753 75.3034 52.2442 74.9175 52.2359C74.4924 52.2527 74.0694 52.1659 73.6851 51.9829C73.3008 51.7998 72.9667 51.5262 72.7114 51.1852C72.1362 50.3852 71.8453 49.4152 71.8852 48.4304C71.8411 47.4882 72.134 46.5613 72.7114 45.816C72.981 45.4899 73.3233 45.2317 73.7108 45.0621C74.0983 44.8925 74.5201 44.8164 74.9423 44.8398C75.3337 44.8225 75.7239 44.8947 76.0832 45.0509C76.4426 45.2072 76.7617 45.4434 77.0162 45.7416V42.3001H79.7428V45.7168Z" fill="#275E35"/>
<path fill-rule="evenodd" clip-rule="evenodd" d="M60.5823 5.06296C59.7559 5.31115 60.0451 7.13121 60.0451 7.99161V10.5976C60.1112 13.5594 60.293 18.0433 60.5823 24.1156V28.3597C60.4643 28.7175 60.4029 29.0916 60.4004 29.4683C60.4004 29.8241 60.5409 30.0061 60.8631 30.0061H61.1441L64.5483 29.6833C64.613 29.6828 64.6758 29.6617 64.7278 29.6231C64.7798 29.5844 64.8182 29.5302 64.8375 29.4683C64.9501 28.6041 65.0081 27.7338 65.011 26.8623C65.011 24.1901 65.1927 20.55 65.2257 15.9502C65.2257 14.7672 65.0523 9.67102 65.5894 9.67102H65.7629C66.5773 9.86713 67.4063 9.99716 68.2417 10.0599C68.6299 9.91434 69.0416 9.84143 69.4563 9.84475C69.7124 9.84475 69.8198 9.91921 69.8198 10.0599L70.7535 28.7237V29.0381C70.7535 29.0381 70.1752 29.3276 70.1752 29.7578C70.1752 29.9316 70.423 30.0061 71.0014 30.0061C71.3897 30.0061 74.8683 29.6751 74.8683 29.4683V25.2243L73.9429 5.95645C74.48 5.67516 74.7691 5.46007 74.7691 5.31115C74.7691 5.16224 74.6286 5.06296 74.3807 5.06296H60.5823ZM81.1478 10.0268C79.7101 10.308 78.5286 10.8541 78.5286 11.9213C78.5286 12.277 78.3881 14.4528 79.2805 14.4528C80.1728 14.4528 81.3213 13.8406 83.1143 13.8406C84.1885 13.8406 85.4444 14.1302 85.4444 15.0899C85.4444 16.9099 83.04 17.0588 82.2551 17.2325C81.1248 17.4775 80.0899 18.0457 79.276 18.8681C78.4619 19.6904 77.9039 20.7316 77.6693 21.8654C77.535 22.655 77.4741 23.4554 77.4875 24.2563C77.4576 25.2096 77.5775 26.1614 77.8428 27.0774C78.6691 29.2532 80.0655 30.3866 82.1063 30.3866C82.9325 30.3866 84.1885 29.4518 85.2957 29.4518C86.1141 29.9594 86.9769 30.3915 87.8735 30.7423C88.4189 30.7423 90.0963 29.9812 90.0963 29.4848V13.9151C90.0963 12.1281 88.0223 10.0599 85.8327 10.0599L81.1478 10.0268ZM84.6925 19.8551C85.1552 19.5986 85.4114 19.7475 85.4114 20.2439V24.8189C85.4114 25.5717 84.9074 25.9606 83.8663 25.9606C82.8252 25.9606 82.4368 25.2821 82.4368 23.8923C82.4033 23.1927 82.5364 22.4951 82.8252 21.8571C83.3676 21.1192 83.9943 20.4474 84.6925 19.8551ZM111.777 10.0764C110.34 10.3577 109.158 10.9037 109.158 11.9709C109.158 12.3267 109.018 14.5025 109.91 14.5025C110.802 14.5025 111.959 13.8903 113.744 13.8903C114.826 13.8903 116.074 14.1798 116.074 15.1394C116.074 16.9595 113.678 17.1084 112.885 17.2822C111.75 17.5135 110.708 18.0698 109.883 18.8835C109.059 19.6972 108.488 20.7331 108.241 21.8654C108.107 22.655 108.046 23.4554 108.059 24.2563C108.027 25.2102 108.15 26.1629 108.423 27.0774C109.208 29.2532 110.645 30.3866 112.686 30.3866C113.512 30.3866 114.76 29.4518 115.876 29.4518C116.692 29.9627 117.555 30.3949 118.454 30.7423C118.991 30.7423 120.676 29.9812 120.676 29.4848V13.9151C120.676 12.1281 118.594 10.0599 116.413 10.0599L111.777 10.0764ZM115.322 19.8551C115.793 19.5986 116.041 19.7475 116.041 20.2439V24.8189C116.041 25.5717 115.537 25.9606 114.496 25.9606C113.455 25.9606 113.066 25.2821 113.066 23.8923C113.031 23.1917 113.167 22.4929 113.463 21.8571C114.002 21.119 114.626 20.447 115.322 19.8551ZM143.902 3.74756C142.558 4.89918 141.638 6.46947 141.291 8.2067C141.198 8.93081 140.94 9.62403 140.54 10.2336V13.5428C140.54 14.0723 140.176 14.37 139.424 14.4694H138.598C137.664 14.4694 137.202 14.3618 137.202 14.1137V13.8985L138.136 5.93991C137.527 5.51241 136.846 5.1985 136.127 5.01333C135.343 5.01333 134.161 5.58416 132.475 5.58416C132.433 5.58416 132.153 5.5097 132.153 5.40216V29.6503L132.583 30.0061C133.257 30.1136 133.94 30.1744 134.623 30.1881H136.482L137.019 29.6503C137.164 29.1113 137.226 28.5534 137.202 27.9957C137.202 27.5656 137.383 24.7858 137.597 19.7227V19.6152C137.597 19.2926 137.342 19.2263 137.597 18.7878C137.597 19.1767 137.706 19.3587 137.846 19.3587H137.986C138.649 19.1524 139.335 19.0219 140.027 18.9698H140.209C140.741 19.4015 141.179 19.9362 141.498 20.5418C141.818 21.1475 142.012 21.8116 142.068 22.4942C142.25 24.4632 142.39 26.0681 142.465 27.3173C142.506 28.1446 142.506 29.0298 142.465 29.8819L142.82 30.0639L147.48 30.7837C147.373 29.8819 147.265 28.9553 147.092 28.0288C146.761 26.0681 145.977 23.8178 145.977 21.8571C145.977 21.1457 146.191 20.8892 146.191 19.64C146.191 18.1839 145.514 17.613 144.539 16.7527V16.397C144.986 16.0885 145.355 15.6795 145.616 15.2025C145.877 14.7255 146.023 14.1939 146.042 13.6503C146 12.1157 145.792 10.5902 145.423 9.10019L145.96 9.45592C147.463 8.852 147.893 8.99263 148.579 7.95851C148.934 7.45386 149.289 6.95748 149.686 6.49419C149.273 5.91294 148.699 5.46679 148.034 5.21188L143.902 3.74756ZM153.471 10.0599C152.033 10.3411 150.851 10.8872 150.851 11.9544C150.851 12.3101 150.711 14.4859 151.603 14.4859C152.496 14.4859 153.644 13.8737 155.437 13.8737C156.511 13.8737 157.767 14.1632 157.767 15.1229C157.767 16.943 155.363 17.0919 154.578 17.2656C153.445 17.5025 152.407 18.0632 151.586 18.8796C150.767 19.6961 150.201 20.7333 149.959 21.8654C149.825 22.655 149.764 23.4554 149.777 24.2563C149.747 25.2096 149.867 26.1614 150.133 27.0774C150.958 29.2532 152.355 30.3866 154.396 30.3866C155.222 30.3866 156.478 29.4518 157.586 29.4518C158.404 29.9594 159.267 30.3915 160.163 30.7423C160.708 30.7423 162.386 29.9812 162.386 29.4848V13.9151C162.386 12.1281 160.311 10.0599 158.123 10.0599H153.471ZM156.99 19.8551C157.453 19.5986 157.709 19.7475 157.709 20.2439V24.8189C157.709 25.5717 157.205 25.9606 156.164 25.9606C155.123 25.9606 154.735 25.2821 154.735 23.8923C154.702 23.1927 154.834 22.4951 155.123 21.8571C155.666 21.1192 156.292 20.4474 156.99 19.8551ZM172.607 10.0764C172.141 10.1848 171.694 10.3663 171.285 10.6141C171.022 10.7307 170.743 10.8087 170.458 10.8458C170.351 10.8458 170.07 10.217 169.632 10.217C169.195 10.217 168.227 10.8292 167.153 10.8292C166.865 10.8292 165.501 10.2501 165.501 10.6141V34.7878C165.501 35.2511 168.401 36.1115 168.657 36.1115C169.549 36.1115 169.946 34.8292 169.946 34.1094V33.1497C169.946 32.6865 169.872 32.0081 169.764 31.1146V30.4363C169.764 29.9647 169.764 29.4352 170.301 29.4352C170.838 29.4352 172.095 30.3701 173.384 30.3701C175.714 30.3701 177.217 29.187 177.936 26.8623C178.113 26.0475 178.185 25.2134 178.151 24.3804C178.18 23.9175 178.18 23.4533 178.151 22.9905L176.853 15.429C176.853 15.429 176.853 15.3214 176.853 15.2139C176.853 14.8251 177.68 14.1798 177.68 13.3194C177.719 12.6186 177.514 11.9257 177.102 11.3587C175.895 9.73721 174.251 9.92749 172.631 10.0599L172.607 10.0764ZM171.466 14.3205C171.655 14.2874 171.847 14.2874 172.036 14.3205C172.863 14.4611 173.325 14.8251 173.325 15.429V17.4642L172.036 23.7433V23.8509C172.036 24.0661 173.003 24.5955 173.003 25.0257C173.003 25.6709 172.574 25.9854 171.748 25.9854C170.714 25.9854 170.177 25.4889 170.177 24.488V15.7682C170.21 15.1643 170.632 14.6597 171.491 14.3039L171.466 14.3205ZM183.861 10.2501C183.464 10.2915 183.282 10.5728 183.282 11.0774V11.3587L184.398 16.8933V17.4642C184.398 17.7786 183.968 19.8109 183.108 23.5613C182.82 24.67 182.175 26.1674 181.456 26.1674H181.241L181.819 25.4146H181.703C180.898 25.6398 180.206 26.1631 179.77 26.8788C179.569 28.0479 179.484 29.2339 179.515 30.4197C180.2 30.4197 180.919 30.4197 181.638 30.4197C184.679 30.2707 186.505 28.6244 187.19 25.4558C187.409 24.4236 187.542 23.3748 187.587 22.3204V19.4828C187.587 18.3412 187.587 17.6627 187.587 17.6213L186.472 15.2305C187.587 14.6597 190.38 13.3773 190.553 13.3773H190.702C190.618 13.8389 190.436 14.2767 190.164 14.6597V30.1881H191.091L193.345 31.2966C194.172 31.2966 194.85 29.3276 194.85 28.1859V26.8623C194.635 15.9088 194.495 10.4487 194.462 10.4156L194.279 10.2336L183.861 10.2501ZM202.311 10.0764C201.1 10.2001 199.973 10.7476 199.127 11.6224C198.279 12.4972 197.769 13.6431 197.684 14.8582C197.59 15.472 197.532 16.0907 197.51 16.7113V23.5613C197.499 24.4428 197.618 25.3211 197.865 26.1674C198.692 28.9884 200.765 30.3866 204.096 30.3866C207.426 30.3866 209.4 29.0216 210.301 26.3494C210.581 25.4105 210.713 24.4335 210.689 23.4538V22.6265C210.581 21.1622 210.408 18.9203 210.118 15.9585C210.118 15.4869 210.118 14.7423 210.118 13.7414C210.118 12.2439 207.64 10.1426 205.855 10.0681C204.672 9.99057 203.486 9.98781 202.303 10.0599L202.311 10.0764ZM203.815 13.9317C205.178 13.7165 205.781 14.2129 205.855 15.429C206.071 18.3907 206.359 21.3525 206.608 24.3142V24.4218C206.608 25.2077 205.211 26.3494 204.17 26.3494C202.914 26.3494 202.311 25.8447 202.311 24.8437V15.4125C202.287 15.21 202.309 15.0049 202.376 14.8123C202.443 14.6197 202.552 14.4448 202.696 14.3008C202.84 14.1566 203.015 14.0471 203.207 13.9802C203.4 13.9134 203.604 13.8911 203.806 13.9151L203.815 13.9317ZM105.564 12.9472C105.729 12.5252 105.762 12.2522 105.564 12.1778C105.579 11.5229 105.523 10.8684 105.399 10.2253L96.475 9.29873H95.3595C94.7564 9.51383 93.3187 10.1922 93.3187 10.5893V30.5438L93.5004 30.1881C93.6423 30.1596 93.7884 30.1596 93.9301 30.1881C94.9073 30.2224 95.8786 30.3527 96.8302 30.5769L97.8714 29.6833V14.4859C97.8714 14.3783 98.0862 14.3452 98.5158 14.3039C98.8264 14.2753 99.1389 14.2753 99.4496 14.3039C99.9471 14.2593 100.448 14.333 100.912 14.5191C100.933 14.9214 100.933 15.3245 100.912 15.7268C100.944 16.1205 100.944 16.5162 100.912 16.9099C100.772 19.3008 100.524 22.8664 100.16 27.6648V28.1281C100.16 29.3773 100.846 30.0226 102.168 30.0226C102.938 30.0397 103.707 29.9787 104.465 29.8406H105.572C105.68 29.8406 105.713 29.7744 105.754 29.6669V24.2977C105.663 20.4838 105.613 15.8344 105.523 12.9554L105.564 12.9472Z" fill="#275E35"/>
<path fill-rule="evenodd" clip-rule="evenodd" d="M216.662 5.46017H217.885C218.303 5.50095 218.722 5.40827 219.083 5.19544C219.188 5.11502 219.272 5.01072 219.328 4.89127C219.384 4.77182 219.411 4.64067 219.406 4.50878C219.403 4.3313 219.35 4.15836 219.249 4.0124C219.139 3.86605 218.989 3.75411 218.819 3.68976C218.489 3.60615 218.149 3.57268 217.811 3.59048H216.662V5.46017ZM215.654 8.94311V2.74664H217.794C218.332 2.7225 218.869 2.78109 219.389 2.92037C219.723 3.02034 220.014 3.23017 220.215 3.51603C220.399 3.78431 220.499 4.10085 220.504 4.42605C220.505 4.64577 220.462 4.86355 220.38 5.06667C220.296 5.2698 220.173 5.45418 220.017 5.60909C219.67 5.9518 219.207 6.1524 218.719 6.17165C218.916 6.24545 219.097 6.35797 219.249 6.50257C219.603 6.8741 219.913 7.28489 220.174 7.72697L220.934 8.94311H219.703L219.149 7.9669C218.89 7.42761 218.533 6.93991 218.099 6.5274C217.857 6.36193 217.565 6.28589 217.274 6.31229H216.679V8.94311H215.654ZM218.199 0.951394C217.367 0.954844 216.549 1.16823 215.819 1.57187C215.056 1.97884 214.425 2.59606 214.002 3.35056C213.577 4.09326 213.354 4.93503 213.357 5.79109C213.364 6.61966 213.587 7.43215 214.002 8.1489C214.423 8.89645 215.044 9.51217 215.795 9.92759C216.529 10.3453 217.358 10.5649 218.203 10.5649C219.048 10.5649 219.878 10.3453 220.612 9.92759C221.362 9.51449 221.981 8.89802 222.397 8.1489C222.812 7.43215 223.034 6.61966 223.041 5.79109C223.036 4.9455 222.811 4.11583 222.388 3.38366C221.983 2.6204 221.367 1.99106 220.612 1.57187C219.874 1.1662 219.048 0.952811 218.208 0.951394H218.199ZM218.199 0C219.196 0.00777373 220.175 0.263637 221.049 0.74457C221.961 1.2296 222.712 1.96795 223.215 2.87072C223.727 3.74913 223.998 4.74853 223.998 5.76627C223.998 6.78402 223.727 7.78342 223.215 8.66182C222.721 9.54804 221.984 10.2743 221.091 10.7549C220.209 11.2552 219.212 11.5182 218.199 11.5182C217.185 11.5182 216.189 11.2552 215.307 10.7549C214.402 10.2636 213.656 9.52285 213.159 8.62046C212.667 7.75817 212.406 6.78386 212.398 5.79109C212.4 4.76658 212.667 3.75999 213.175 2.87072C213.68 1.96764 214.435 1.22948 215.348 0.74457C216.225 0.261655 217.207 0.005704 218.208 0H218.199Z" fill="#275E35"/>
</svg>
